name Walk4.mot
datacolumns 19
datarows 12
range 1.25000000 1.26100000
endheader

                time	   L_ground_force_vx	   L_ground_force_vy	   L_ground_force_vz	   L_ground_force_px	   L_ground_force_py	   L_ground_force_pz	   R_ground_force_vx	   R_ground_force_vy	   R_ground_force_vz	   R_ground_force_px	   R_ground_force_py	   R_ground_force_pz	   L_ground_torque_x	   L_ground_torque_y	   L_ground_torque_z	   R_ground_torque_x	   R_ground_torque_y	   R_ground_torque_z	
          1.25000000	          0.00000000	          0.00000000	          0.00000000	          0.00000000	          0.00000000	          0.00000000	          0.00000000	          0.00000000	          0.00000000	          0.00000000	          0.00000000	          0.00000000	          0.00000000	          0.00000000	          0.00000000	          0.00000000	          0.00000000	          0.00000000	
          1.25100000	          0.00000000	          0.00000000	          0.00000000	          0.00000000	          0.00000000	          0.00000000	          0.00000000	          0.00000000	          0.00000000	          0.00000000	          0.00000000	          0.00000000	          0.00000000	          0.00000000	          0.00000000	          0.00000000	          0.00000000	          0.00000000	
          1.25200000	          0.00000000	          0.00000000	          0.00000000	          0.00000000	          0.00000000	          0.00000000	          0.00000000	          0.00000000	          0.00000000	          0.00000000	          0.00000000	          0.00000000	          0.00000000	          0.00000000	          0.00000000	          0.00000000	          0.00000000	          0.00000000	
          1.25300000	          0.00000000	          0.00000000	          0.00000000	          0.00000000	          0.00000000	          0.00000000	          0.00000000	          0.00000000	          0.00000000	          0.00000000	          0.00000000	          0.00000000	          0.00000000	          0.00000000	          0.00000000	          0.00000000	          0.00000000	          0.00000000	
          1.25400000	          0.00000000	          0.00000000	          0.00000000	          0.00000000	          0.00000000	          0.00000000	          0.00000000	          0.00000000	          0.00000000	          0.00000000	          0.00000000	          0.00000000	          0.00000000	          0.00000000	          0.00000000	          0.00000000	          0.00000000	          0.00000000	
          1.25500000	          0.00000000	          0.00000000	          0.00000000	          0.00000000	          0.00000000	          0.00000000	         -5.45574854	         15.61408905	         -1.05444098	         -0.24390520	          0.00000000	          0.34349253	          0.00000000	          0.00000000	          0.00000000	          0.00000000	         -0.12395141	          0.00000000	
          1.25600000	          0.00000000	          0.00000000	          0.00000000	          0.00000000	          0.00000000	          0.00000000	         -8.86027950	         30.51061972	         -1.35786730	         -0.24727780	          0.00000000	          0.34703314	          0.00000000	          0.00000000	          0.00000000	          0.00000000	         -0.15401641	          0.00000000	
          1.25700000	          0.00000000	          0.00000000	          0.00000000	          0.00000000	          0.00000000	          0.00000000	        -12.83409859	         51.82029709	         -1.50495222	         -0.24967300	          0.00000000	          0.34944266	          0.00000000	          0.00000000	          0.00000000	          0.00000000	         -0.17261790	          0.00000000	
          1.25800000	          0.00000000	          0.00000000	          0.00000000	          0.00000000	          0.00000000	          0.00000000	        -17.10978513	         80.63446701	         -1.40870288	         -0.25150251	          0.00000000	          0.35109115	          0.00000000	          0.00000000	          0.00000000	          0.00000000	         -0.17843055	          0.00000000	
          1.25900000	          0.00000000	          0.00000000	          0.00000000	          0.00000000	          0.00000000	          0.00000000	        -21.26108013	        117.32455452	         -0.97147248	         -0.25280644	          0.00000000	          0.35215421	          0.00000000	          0.00000000	          0.00000000	          0.00000000	         -0.17779004	          0.00000000	
          1.26000000	          0.00000000	          0.00000000	          0.00000000	          0.00000000	          0.00000000	          0.00000000	        -24.71221510	        160.79708133	         -0.06210598	         -0.25360920	          0.00000000	          0.35280621	          0.00000000	          0.00000000	          0.00000000	          0.00000000	         -0.18344022	          0.00000000	
          1.26100000	          0.00000000	          0.00000000	          0.00000000	          0.00000000	          0.00000000	          0.00000000	        -26.90884873	        208.27621956	          1.47207899	         -0.25399138	          0.00000000	          0.35318199	          0.00000000	          0.00000000	          0.00000000	          0.00000000	         -0.20758817	          0.00000000	
